<mxfile host="Electron" modified="2024-10-02T14:27:38.128Z" agent="Mozilla/5.0 (Windows NT 10.0; Win64; x64) AppleWebKit/537.36 (KHTML, like Gecko) draw.io/22.1.2 Chrome/114.0.5735.289 Electron/25.9.4 Safari/537.36" etag="ataoDmg9nFoaTD8QkeKf" version="22.1.2" type="device" pages="3">
  <diagram name="control_loop_server_1" id="jCAHWfNc0cio7z932dpG">
    <mxGraphModel dx="1434" dy="870" grid="1" gridSize="10" guides="1" tooltips="1" connect="1" arrows="1" fold="1" page="1" pageScale="1" pageWidth="827" pageHeight="1169" math="0" shadow="0">
      <root>
        <mxCell id="0" />
        <mxCell id="1" parent="0" />
        <mxCell id="-fGqBV7MhcNt-mfs0n5A-1" value="" style="rounded=1;whiteSpace=wrap;html=1;fontFamily=VK Sans Display;strokeColor=none;arcsize=12;fillColor=#FFFFFF;spacing=0;spacingTop=12;spacingBottom=12;arcSize=12;absoluteArcSize=1;fontSize=14;fontColor=#212121;" vertex="1" parent="1">
          <mxGeometry x="10" y="10" width="1040" height="540" as="geometry" />
        </mxCell>
        <mxCell id="-fGqBV7MhcNt-mfs0n5A-2" value="Для 12 контроллеров" style="rounded=1;whiteSpace=wrap;html=1;strokeColor=#7C8A9A;strokeWidth=1;fontColor=#212121;fillColor=none;dashed=1;fontFamily=VK Sans Display;verticalAlign=top;spacing=10;fontStyle=1;arcSize=12;absoluteArcSize=1;" vertex="1" parent="1">
          <mxGeometry x="800" y="20" width="240" height="520" as="geometry" />
        </mxCell>
        <mxCell id="-fGqBV7MhcNt-mfs0n5A-3" value="Для 9 контроллеров" style="rounded=1;whiteSpace=wrap;html=1;strokeColor=#7C8A9A;strokeWidth=1;fontColor=#212121;fillColor=none;dashed=1;fontFamily=VK Sans Display;verticalAlign=top;spacing=10;fontStyle=1;arcSize=12;absoluteArcSize=1;" vertex="1" parent="1">
          <mxGeometry x="540" y="20" width="240" height="450" as="geometry" />
        </mxCell>
        <mxCell id="-fGqBV7MhcNt-mfs0n5A-4" value="Для 6 контроллеров" style="rounded=1;whiteSpace=wrap;html=1;strokeColor=#7C8A9A;strokeWidth=1;fontColor=#212121;fillColor=none;dashed=1;fontFamily=VK Sans Display;verticalAlign=top;spacing=10;fontStyle=1;arcSize=12;absoluteArcSize=1;" vertex="1" parent="1">
          <mxGeometry x="280" y="20" width="240" height="380" as="geometry" />
        </mxCell>
        <mxCell id="-fGqBV7MhcNt-mfs0n5A-5" value="Для 3 контроллеров" style="rounded=1;whiteSpace=wrap;html=1;strokeColor=#7C8A9A;strokeWidth=1;fontColor=#212121;fillColor=none;dashed=1;fontFamily=VK Sans Display;verticalAlign=top;spacing=10;fontStyle=1;arcSize=12;absoluteArcSize=1;" vertex="1" parent="1">
          <mxGeometry x="20" y="20" width="240" height="270" as="geometry" />
        </mxCell>
        <mxCell id="-fGqBV7MhcNt-mfs0n5A-6" value="&lt;font style=&quot;font-size: 12px;&quot;&gt;&lt;span style=&quot;font-size: 13px;&quot;&gt;Контроллеры &lt;/span&gt;&lt;font style=&quot;font-size: 12px;&quot;&gt;1&lt;/font&gt;&lt;/font&gt;&lt;span style=&quot;color: rgb(23, 43, 77); text-align: start; background-color: rgb(255, 255, 255);&quot;&gt;&lt;font style=&quot;font-size: 12px;&quot;&gt;–3&lt;/font&gt;&lt;/span&gt;" style="rounded=1;whiteSpace=wrap;html=1;fontFamily=VK Sans Display;strokeColor=none;arcsize=12;fillColor=#F6F7F9;spacing=10;verticalAlign=top;spacingTop=0;spacingLeft=0;spacingRight=0;fontStyle=1;arcSize=12;absoluteArcSize=1;fontColor=#212121;" vertex="1" parent="1">
          <mxGeometry x="30" y="60" width="220" height="210" as="geometry" />
        </mxCell>
        <mxCell id="-fGqBV7MhcNt-mfs0n5A-7" value="HAProxy" style="rounded=1;whiteSpace=wrap;html=1;fontFamily=VK Sans Display;strokeColor=none;arcsize=12;fillColor=#FFFFFF;spacing=0;spacingTop=12;spacingBottom=12;arcSize=12;absoluteArcSize=1;fontColor=#212121;" vertex="1" parent="1">
          <mxGeometry x="50" y="101" width="80" height="30" as="geometry" />
        </mxCell>
        <mxCell id="-fGqBV7MhcNt-mfs0n5A-8" value="&lt;font&gt;K8S&lt;/font&gt;" style="rounded=1;whiteSpace=wrap;html=1;fontFamily=VK Sans Display;strokeColor=none;arcsize=12;fillColor=#FFFFFF;spacing=0;spacingTop=12;spacingBottom=12;arcSize=12;absoluteArcSize=1;fontColor=#212121;" vertex="1" parent="1">
          <mxGeometry x="150" y="101" width="80" height="30" as="geometry" />
        </mxCell>
        <mxCell id="-fGqBV7MhcNt-mfs0n5A-9" value="etcd" style="rounded=1;whiteSpace=wrap;html=1;fontFamily=VK Sans Display;strokeColor=none;arcsize=12;fillColor=#FFFFFF;spacing=0;spacingTop=12;spacingBottom=12;arcSize=12;absoluteArcSize=1;fontColor=#212121;" vertex="1" parent="1">
          <mxGeometry x="50" y="141" width="80" height="30" as="geometry" />
        </mxCell>
        <mxCell id="-fGqBV7MhcNt-mfs0n5A-10" value="&lt;font&gt;DB&lt;/font&gt;" style="rounded=1;whiteSpace=wrap;html=1;fontFamily=VK Sans Display;strokeColor=none;arcsize=12;fillColor=#FFFFFF;spacing=0;spacingTop=12;spacingBottom=12;arcSize=12;absoluteArcSize=1;fontColor=#212121;" vertex="1" parent="1">
          <mxGeometry x="150" y="141" width="80" height="30" as="geometry" />
        </mxCell>
        <mxCell id="-fGqBV7MhcNt-mfs0n5A-11" value="&lt;font&gt;Other&lt;/font&gt;" style="rounded=1;whiteSpace=wrap;html=1;fontFamily=VK Sans Display;strokeColor=none;arcsize=12;fillColor=#FFFFFF;spacing=0;spacingTop=12;spacingBottom=12;arcSize=12;absoluteArcSize=1;fontColor=#212121;" vertex="1" parent="1">
          <mxGeometry x="50" y="181" width="80" height="30" as="geometry" />
        </mxCell>
        <mxCell id="-fGqBV7MhcNt-mfs0n5A-12" value="&lt;font&gt;Cinder&lt;/font&gt;" style="rounded=1;whiteSpace=wrap;html=1;fontFamily=VK Sans Display;strokeColor=none;arcsize=12;fillColor=#FFFFFF;spacing=0;spacingTop=12;spacingBottom=12;arcSize=12;absoluteArcSize=1;fontColor=#212121;" vertex="1" parent="1">
          <mxGeometry x="150" y="181" width="80" height="30" as="geometry" />
        </mxCell>
        <mxCell id="-fGqBV7MhcNt-mfs0n5A-13" value="&lt;font&gt;Neutron&lt;/font&gt;" style="rounded=1;whiteSpace=wrap;html=1;fontFamily=VK Sans Display;strokeColor=none;arcsize=12;fillColor=#FFFFFF;spacing=0;spacingTop=12;spacingBottom=12;arcSize=12;absoluteArcSize=1;fontColor=#212121;" vertex="1" parent="1">
          <mxGeometry x="50" y="221" width="80" height="30" as="geometry" />
        </mxCell>
        <mxCell id="-fGqBV7MhcNt-mfs0n5A-14" value="&lt;font&gt;Nova&lt;/font&gt;" style="rounded=1;whiteSpace=wrap;html=1;fontFamily=VK Sans Display;strokeColor=none;arcsize=12;fillColor=#FFFFFF;spacing=0;spacingTop=12;spacingBottom=12;arcSize=12;absoluteArcSize=1;fontColor=#212121;" vertex="1" parent="1">
          <mxGeometry x="150" y="221" width="80" height="30" as="geometry" />
        </mxCell>
        <mxCell id="-fGqBV7MhcNt-mfs0n5A-15" value="&lt;font&gt;Контроллеры 1&lt;/font&gt;–3" style="rounded=1;whiteSpace=wrap;html=1;fontFamily=VK Sans Display;strokeColor=none;arcsize=12;fillColor=#F6F7F9;spacing=10;verticalAlign=top;spacingTop=0;spacingLeft=0;spacingRight=0;fontStyle=1;arcSize=12;absoluteArcSize=1;fontColor=#212121;" vertex="1" parent="1">
          <mxGeometry x="290" y="60" width="220" height="210" as="geometry" />
        </mxCell>
        <mxCell id="-fGqBV7MhcNt-mfs0n5A-16" value="HAProxy" style="rounded=1;whiteSpace=wrap;html=1;fontFamily=VK Sans Display;strokeColor=none;arcsize=12;fillColor=#FFFFFF;spacing=0;spacingTop=12;spacingBottom=12;arcSize=12;absoluteArcSize=1;fontColor=#212121;" vertex="1" parent="1">
          <mxGeometry x="360" y="101" width="80" height="30" as="geometry" />
        </mxCell>
        <mxCell id="-fGqBV7MhcNt-mfs0n5A-17" value="etcd" style="rounded=1;whiteSpace=wrap;html=1;fontFamily=VK Sans Display;strokeColor=none;arcsize=12;fillColor=#FFFFFF;spacing=0;spacingTop=12;spacingBottom=12;arcSize=12;absoluteArcSize=1;fontColor=#212121;" vertex="1" parent="1">
          <mxGeometry x="310" y="141" width="80" height="30" as="geometry" />
        </mxCell>
        <mxCell id="-fGqBV7MhcNt-mfs0n5A-18" value="&lt;font&gt;DB&lt;/font&gt;" style="rounded=1;whiteSpace=wrap;html=1;fontFamily=VK Sans Display;strokeColor=none;arcsize=12;fillColor=#FFFFFF;spacing=0;spacingTop=12;spacingBottom=12;arcSize=12;absoluteArcSize=1;fontColor=#212121;" vertex="1" parent="1">
          <mxGeometry x="410" y="141" width="80" height="30" as="geometry" />
        </mxCell>
        <mxCell id="-fGqBV7MhcNt-mfs0n5A-19" value="&lt;font&gt;Other&lt;/font&gt;" style="rounded=1;whiteSpace=wrap;html=1;fontFamily=VK Sans Display;strokeColor=none;arcsize=12;fillColor=#FFFFFF;spacing=0;spacingTop=12;spacingBottom=12;arcSize=12;absoluteArcSize=1;fontColor=#212121;" vertex="1" parent="1">
          <mxGeometry x="310" y="181" width="80" height="30" as="geometry" />
        </mxCell>
        <mxCell id="-fGqBV7MhcNt-mfs0n5A-20" value="&lt;font&gt;Cinder&lt;/font&gt;" style="rounded=1;whiteSpace=wrap;html=1;fontFamily=VK Sans Display;strokeColor=none;arcsize=12;fillColor=#FFFFFF;spacing=0;spacingTop=12;spacingBottom=12;arcSize=12;absoluteArcSize=1;fontColor=#212121;" vertex="1" parent="1">
          <mxGeometry x="410" y="181" width="80" height="30" as="geometry" />
        </mxCell>
        <mxCell id="-fGqBV7MhcNt-mfs0n5A-21" value="&lt;font&gt;Neutron&lt;/font&gt;" style="rounded=1;whiteSpace=wrap;html=1;fontFamily=VK Sans Display;strokeColor=none;arcsize=12;fillColor=#FFFFFF;spacing=0;spacingTop=12;spacingBottom=12;arcSize=12;absoluteArcSize=1;fontColor=#212121;" vertex="1" parent="1">
          <mxGeometry x="310" y="221" width="80" height="30" as="geometry" />
        </mxCell>
        <mxCell id="-fGqBV7MhcNt-mfs0n5A-22" value="&lt;font&gt;Nova&lt;/font&gt;" style="rounded=1;whiteSpace=wrap;html=1;fontFamily=VK Sans Display;strokeColor=none;arcsize=12;fillColor=#FFFFFF;spacing=0;spacingTop=12;spacingBottom=12;arcSize=12;absoluteArcSize=1;fontColor=#212121;" vertex="1" parent="1">
          <mxGeometry x="410" y="221" width="80" height="30" as="geometry" />
        </mxCell>
        <mxCell id="-fGqBV7MhcNt-mfs0n5A-23" value="&lt;font&gt;Контроллеры 4&lt;/font&gt;–6" style="rounded=1;whiteSpace=wrap;html=1;fontFamily=VK Sans Display;strokeColor=none;arcsize=12;fillColor=#F6F7F9;spacing=10;verticalAlign=top;spacingTop=0;spacingLeft=0;spacingRight=0;fontStyle=1;arcSize=12;absoluteArcSize=1;fontColor=#212121;" vertex="1" parent="1">
          <mxGeometry x="290" y="290" width="220" height="90" as="geometry" />
        </mxCell>
        <mxCell id="-fGqBV7MhcNt-mfs0n5A-24" value="&lt;font&gt;K8S&lt;/font&gt;" style="rounded=1;whiteSpace=wrap;html=1;fontFamily=VK Sans Display;strokeColor=none;arcsize=12;fillColor=#FFFFFF;spacing=0;spacingTop=12;spacingBottom=12;arcSize=12;absoluteArcSize=1;fontColor=#212121;" vertex="1" parent="1">
          <mxGeometry x="360" y="330" width="80" height="30" as="geometry" />
        </mxCell>
        <mxCell id="-fGqBV7MhcNt-mfs0n5A-25" value="&lt;font&gt;Контроллеры 1&lt;/font&gt;–3" style="rounded=1;whiteSpace=wrap;html=1;fontFamily=VK Sans Display;strokeColor=none;arcsize=12;fillColor=#F6F7F9;spacing=10;verticalAlign=top;spacingTop=0;spacingLeft=0;spacingRight=0;fontStyle=1;arcSize=12;absoluteArcSize=1;fontColor=#212121;" vertex="1" parent="1">
          <mxGeometry x="550" y="60" width="220" height="170" as="geometry" />
        </mxCell>
        <mxCell id="-fGqBV7MhcNt-mfs0n5A-26" value="HAProxy" style="rounded=1;whiteSpace=wrap;html=1;fontFamily=VK Sans Display;strokeColor=none;arcsize=12;fillColor=#FFFFFF;spacing=0;spacingTop=12;spacingBottom=12;arcSize=12;absoluteArcSize=1;fontColor=#212121;" vertex="1" parent="1">
          <mxGeometry x="620" y="101" width="80" height="30" as="geometry" />
        </mxCell>
        <mxCell id="-fGqBV7MhcNt-mfs0n5A-27" value="&lt;font&gt;Other&lt;/font&gt;" style="rounded=1;whiteSpace=wrap;html=1;fontFamily=VK Sans Display;strokeColor=none;arcsize=12;fillColor=#FFFFFF;spacing=0;spacingTop=12;spacingBottom=12;arcSize=12;absoluteArcSize=1;fontColor=#212121;" vertex="1" parent="1">
          <mxGeometry x="570" y="141" width="80" height="30" as="geometry" />
        </mxCell>
        <mxCell id="-fGqBV7MhcNt-mfs0n5A-28" value="&lt;font&gt;Cinder&lt;/font&gt;" style="rounded=1;whiteSpace=wrap;html=1;fontFamily=VK Sans Display;strokeColor=none;arcsize=12;fillColor=#FFFFFF;spacing=0;spacingTop=12;spacingBottom=12;arcSize=12;absoluteArcSize=1;fontColor=#212121;" vertex="1" parent="1">
          <mxGeometry x="670" y="141" width="80" height="30" as="geometry" />
        </mxCell>
        <mxCell id="-fGqBV7MhcNt-mfs0n5A-29" value="&lt;font&gt;Neutron&lt;/font&gt;" style="rounded=1;whiteSpace=wrap;html=1;fontFamily=VK Sans Display;strokeColor=none;arcsize=12;fillColor=#FFFFFF;spacing=0;spacingTop=12;spacingBottom=12;arcSize=12;absoluteArcSize=1;fontColor=#212121;" vertex="1" parent="1">
          <mxGeometry x="570" y="181" width="80" height="30" as="geometry" />
        </mxCell>
        <mxCell id="-fGqBV7MhcNt-mfs0n5A-30" value="&lt;font&gt;Nova&lt;/font&gt;" style="rounded=1;whiteSpace=wrap;html=1;fontFamily=VK Sans Display;strokeColor=none;arcsize=12;fillColor=#FFFFFF;spacing=0;spacingTop=12;spacingBottom=12;arcSize=12;absoluteArcSize=1;fontColor=#212121;" vertex="1" parent="1">
          <mxGeometry x="670" y="181" width="80" height="30" as="geometry" />
        </mxCell>
        <mxCell id="-fGqBV7MhcNt-mfs0n5A-31" value="&lt;font&gt;Контроллеры 7&lt;/font&gt;–9" style="rounded=1;whiteSpace=wrap;html=1;fontFamily=VK Sans Display;strokeColor=none;arcsize=12;fillColor=#F6F7F9;spacing=10;verticalAlign=top;spacingTop=0;spacingLeft=0;spacingRight=0;fontStyle=1;arcSize=12;absoluteArcSize=1;fontColor=#212121;" vertex="1" parent="1">
          <mxGeometry x="550" y="360" width="220" height="90" as="geometry" />
        </mxCell>
        <mxCell id="-fGqBV7MhcNt-mfs0n5A-32" value="&lt;font&gt;K8S&lt;/font&gt;" style="rounded=1;whiteSpace=wrap;html=1;fontFamily=VK Sans Display;strokeColor=none;arcsize=12;fillColor=#FFFFFF;spacing=0;spacingTop=12;spacingBottom=12;arcSize=12;absoluteArcSize=1;fontColor=#212121;" vertex="1" parent="1">
          <mxGeometry x="620" y="402" width="80" height="30" as="geometry" />
        </mxCell>
        <mxCell id="-fGqBV7MhcNt-mfs0n5A-33" value="&lt;font&gt;Контроллеры 4&lt;/font&gt;–6" style="rounded=1;whiteSpace=wrap;html=1;fontFamily=VK Sans Display;strokeColor=none;arcsize=12;fillColor=#F6F7F9;spacing=10;verticalAlign=top;spacingTop=0;spacingLeft=0;spacingRight=0;fontStyle=1;arcSize=12;absoluteArcSize=1;fontColor=#212121;" vertex="1" parent="1">
          <mxGeometry x="550" y="250" width="220" height="90" as="geometry" />
        </mxCell>
        <mxCell id="-fGqBV7MhcNt-mfs0n5A-34" value="etcd" style="rounded=1;whiteSpace=wrap;html=1;fontFamily=VK Sans Display;strokeColor=none;arcsize=12;fillColor=#FFFFFF;spacing=0;spacingTop=12;spacingBottom=12;arcSize=12;absoluteArcSize=1;fontColor=#212121;" vertex="1" parent="1">
          <mxGeometry x="570" y="292" width="80" height="30" as="geometry" />
        </mxCell>
        <mxCell id="-fGqBV7MhcNt-mfs0n5A-35" value="&lt;font&gt;DB&lt;/font&gt;" style="rounded=1;whiteSpace=wrap;html=1;fontFamily=VK Sans Display;strokeColor=none;arcsize=12;fillColor=#FFFFFF;spacing=0;spacingTop=12;spacingBottom=12;arcSize=12;absoluteArcSize=1;fontColor=#212121;" vertex="1" parent="1">
          <mxGeometry x="670" y="292" width="80" height="30" as="geometry" />
        </mxCell>
        <mxCell id="-fGqBV7MhcNt-mfs0n5A-36" value="Контроллеры&amp;nbsp; 4–6" style="rounded=1;whiteSpace=wrap;html=1;fontFamily=VK Sans Display;strokeColor=none;arcsize=12;fillColor=#F6F7F9;spacing=10;verticalAlign=top;spacingTop=0;spacingLeft=0;spacingRight=0;fontStyle=1;arcSize=12;absoluteArcSize=1;fontColor=#212121;" vertex="1" parent="1">
          <mxGeometry x="810" y="170" width="220" height="130" as="geometry" />
        </mxCell>
        <mxCell id="-fGqBV7MhcNt-mfs0n5A-37" value="&lt;font&gt;Other&lt;/font&gt;" style="rounded=1;whiteSpace=wrap;html=1;fontFamily=VK Sans Display;strokeColor=none;arcsize=12;fillColor=#FFFFFF;spacing=0;spacingTop=12;spacingBottom=12;arcSize=12;absoluteArcSize=1;fontColor=#212121;" vertex="1" parent="1">
          <mxGeometry x="830" y="213" width="80" height="30" as="geometry" />
        </mxCell>
        <mxCell id="-fGqBV7MhcNt-mfs0n5A-38" value="&lt;font&gt;Cinder&lt;/font&gt;" style="rounded=1;whiteSpace=wrap;html=1;fontFamily=VK Sans Display;strokeColor=none;arcsize=12;fillColor=#FFFFFF;spacing=0;spacingTop=12;spacingBottom=12;arcSize=12;absoluteArcSize=1;fontColor=#212121;" vertex="1" parent="1">
          <mxGeometry x="930" y="212" width="80" height="30" as="geometry" />
        </mxCell>
        <mxCell id="-fGqBV7MhcNt-mfs0n5A-39" value="&lt;font&gt;Neutron&lt;/font&gt;" style="rounded=1;whiteSpace=wrap;html=1;fontFamily=VK Sans Display;strokeColor=none;arcsize=12;fillColor=#FFFFFF;spacing=0;spacingTop=12;spacingBottom=12;arcSize=12;absoluteArcSize=1;fontColor=#212121;" vertex="1" parent="1">
          <mxGeometry x="830" y="252" width="80" height="30" as="geometry" />
        </mxCell>
        <mxCell id="-fGqBV7MhcNt-mfs0n5A-40" value="&lt;font&gt;Nova&lt;/font&gt;" style="rounded=1;whiteSpace=wrap;html=1;fontFamily=VK Sans Display;strokeColor=none;arcsize=12;fillColor=#FFFFFF;spacing=0;spacingTop=12;spacingBottom=12;arcSize=12;absoluteArcSize=1;fontColor=#212121;" vertex="1" parent="1">
          <mxGeometry x="930" y="252" width="80" height="30" as="geometry" />
        </mxCell>
        <mxCell id="-fGqBV7MhcNt-mfs0n5A-41" value="Контроллеры&amp;nbsp; 10–12" style="rounded=1;whiteSpace=wrap;html=1;fontFamily=VK Sans Display;strokeColor=none;arcsize=12;fillColor=#F6F7F9;spacing=10;verticalAlign=top;spacingTop=0;spacingLeft=0;spacingRight=0;fontStyle=1;arcSize=12;absoluteArcSize=1;fontColor=#212121;" vertex="1" parent="1">
          <mxGeometry x="810" y="430" width="220" height="90" as="geometry" />
        </mxCell>
        <mxCell id="-fGqBV7MhcNt-mfs0n5A-42" value="&lt;font&gt;K8S&lt;/font&gt;" style="rounded=1;whiteSpace=wrap;html=1;fontFamily=VK Sans Display;strokeColor=none;arcsize=12;fillColor=#FFFFFF;spacing=0;spacingTop=12;spacingBottom=12;arcSize=12;absoluteArcSize=1;fontColor=#212121;" vertex="1" parent="1">
          <mxGeometry x="880" y="472" width="80" height="30" as="geometry" />
        </mxCell>
        <mxCell id="-fGqBV7MhcNt-mfs0n5A-43" value="Контроллеры&amp;nbsp; 7–9" style="rounded=1;whiteSpace=wrap;html=1;fontFamily=VK Sans Display;strokeColor=none;arcsize=12;fillColor=#F6F7F9;spacing=10;verticalAlign=top;spacingTop=0;spacingLeft=0;spacingRight=0;fontStyle=1;arcSize=12;absoluteArcSize=1;fontColor=#212121;" vertex="1" parent="1">
          <mxGeometry x="810" y="320" width="220" height="90" as="geometry" />
        </mxCell>
        <mxCell id="-fGqBV7MhcNt-mfs0n5A-44" value="etcd" style="rounded=1;whiteSpace=wrap;html=1;fontFamily=VK Sans Display;strokeColor=none;arcsize=12;fillColor=#FFFFFF;spacing=0;spacingTop=12;spacingBottom=12;arcSize=12;absoluteArcSize=1;fontColor=#212121;" vertex="1" parent="1">
          <mxGeometry x="830" y="363" width="80" height="30" as="geometry" />
        </mxCell>
        <mxCell id="-fGqBV7MhcNt-mfs0n5A-45" value="&lt;font&gt;DB&lt;/font&gt;" style="rounded=1;whiteSpace=wrap;html=1;fontFamily=VK Sans Display;strokeColor=none;arcsize=12;fillColor=#FFFFFF;spacing=0;spacingTop=12;spacingBottom=12;arcSize=12;absoluteArcSize=1;fontColor=#212121;" vertex="1" parent="1">
          <mxGeometry x="930" y="363" width="80" height="30" as="geometry" />
        </mxCell>
        <mxCell id="-fGqBV7MhcNt-mfs0n5A-46" value="&lt;font&gt;Контроллеры 1&lt;/font&gt;–3" style="rounded=1;whiteSpace=wrap;html=1;fontFamily=VK Sans Display;strokeColor=none;arcsize=12;fillColor=#F6F7F9;spacing=10;verticalAlign=top;spacingTop=0;spacingLeft=0;spacingRight=0;fontStyle=1;arcSize=12;absoluteArcSize=1;fontColor=#212121;" vertex="1" parent="1">
          <mxGeometry x="810" y="60" width="220" height="90" as="geometry" />
        </mxCell>
        <mxCell id="-fGqBV7MhcNt-mfs0n5A-47" value="HAProxy" style="rounded=1;whiteSpace=wrap;html=1;fontFamily=VK Sans Display;strokeColor=none;arcsize=12;fillColor=#FFFFFF;spacing=0;spacingTop=12;spacingBottom=12;arcSize=12;absoluteArcSize=1;fontColor=#212121;" vertex="1" parent="1">
          <mxGeometry x="880" y="102" width="80" height="30" as="geometry" />
        </mxCell>
      </root>
    </mxGraphModel>
  </diagram>
  <diagram id="dEKKBsdUXpyMuPEe1cdf" name="control_loop_server_2">
    <mxGraphModel dx="1434" dy="870" grid="1" gridSize="10" guides="1" tooltips="1" connect="1" arrows="1" fold="1" page="1" pageScale="1" pageWidth="827" pageHeight="1169" math="0" shadow="0">
      <root>
        <mxCell id="0" />
        <mxCell id="1" parent="0" />
        <mxCell id="33XBjZ8d0-pwic80QHM7-1" value="" style="rounded=1;whiteSpace=wrap;html=1;fontFamily=VK Sans Display;strokeColor=none;arcsize=12;fillColor=#FFFFFF;spacing=0;spacingTop=12;spacingBottom=12;arcSize=12;absoluteArcSize=1;fontSize=14;fontColor=#212121;" vertex="1" parent="1">
          <mxGeometry x="30" y="30" width="770" height="650" as="geometry" />
        </mxCell>
        <mxCell id="33XBjZ8d0-pwic80QHM7-2" value="Для 24 контроллеров" style="rounded=1;whiteSpace=wrap;html=1;strokeColor=#7C8A9A;strokeWidth=1;fontColor=#212121;fillColor=none;dashed=1;fontFamily=VK Sans Display;verticalAlign=top;spacing=10;fontStyle=1;arcSize=12;absoluteArcSize=1;" vertex="1" parent="1">
          <mxGeometry x="320" y="40" width="470" height="520" as="geometry" />
        </mxCell>
        <mxCell id="33XBjZ8d0-pwic80QHM7-3" value="Для 15 контроллеров" style="rounded=1;whiteSpace=wrap;html=1;strokeColor=#7C8A9A;strokeWidth=1;fontColor=#212121;fillColor=none;dashed=1;fontFamily=VK Sans Display;verticalAlign=top;spacing=10;fontStyle=1;arcSize=12;absoluteArcSize=1;" vertex="1" parent="1">
          <mxGeometry x="40" y="40" width="240" height="630" as="geometry" />
        </mxCell>
        <mxCell id="33XBjZ8d0-pwic80QHM7-4" value="Контроллеры&amp;nbsp; 4–6" style="rounded=1;whiteSpace=wrap;html=1;fontFamily=VK Sans Display;strokeColor=none;arcsize=12;fillColor=#F6F7F9;spacing=10;verticalAlign=top;spacingTop=0;spacingLeft=0;spacingRight=0;fontStyle=1;arcSize=12;absoluteArcSize=1;fontColor=#212121;" vertex="1" parent="1">
          <mxGeometry x="50" y="190" width="220" height="130" as="geometry" />
        </mxCell>
        <mxCell id="33XBjZ8d0-pwic80QHM7-5" value="&lt;font&gt;Other&lt;/font&gt;" style="rounded=1;whiteSpace=wrap;html=1;fontFamily=VK Sans Display;strokeColor=none;arcsize=12;fillColor=#FFFFFF;spacing=0;spacingTop=12;spacingBottom=12;arcSize=12;absoluteArcSize=1;fontColor=#212121;" vertex="1" parent="1">
          <mxGeometry x="70" y="231" width="80" height="30" as="geometry" />
        </mxCell>
        <mxCell id="33XBjZ8d0-pwic80QHM7-6" value="&lt;font&gt;Cinder&lt;/font&gt;" style="rounded=1;whiteSpace=wrap;html=1;fontFamily=VK Sans Display;strokeColor=none;arcsize=12;fillColor=#FFFFFF;spacing=0;spacingTop=12;spacingBottom=12;arcSize=12;absoluteArcSize=1;fontColor=#212121;" vertex="1" parent="1">
          <mxGeometry x="170" y="231" width="80" height="30" as="geometry" />
        </mxCell>
        <mxCell id="33XBjZ8d0-pwic80QHM7-7" value="&lt;font&gt;Neutron&lt;/font&gt;" style="rounded=1;whiteSpace=wrap;html=1;fontFamily=VK Sans Display;strokeColor=none;arcsize=12;fillColor=#FFFFFF;spacing=0;spacingTop=12;spacingBottom=12;arcSize=12;absoluteArcSize=1;fontColor=#212121;" vertex="1" parent="1">
          <mxGeometry x="70" y="271" width="80" height="30" as="geometry" />
        </mxCell>
        <mxCell id="33XBjZ8d0-pwic80QHM7-8" value="&lt;font&gt;Nova&lt;/font&gt;" style="rounded=1;whiteSpace=wrap;html=1;fontFamily=VK Sans Display;strokeColor=none;arcsize=12;fillColor=#FFFFFF;spacing=0;spacingTop=12;spacingBottom=12;arcSize=12;absoluteArcSize=1;fontColor=#212121;" vertex="1" parent="1">
          <mxGeometry x="170" y="271" width="80" height="30" as="geometry" />
        </mxCell>
        <mxCell id="33XBjZ8d0-pwic80QHM7-9" value="Контроллеры&amp;nbsp; 10–12" style="rounded=1;whiteSpace=wrap;html=1;fontFamily=VK Sans Display;strokeColor=none;arcsize=12;fillColor=#F6F7F9;spacing=10;verticalAlign=top;spacingTop=0;spacingLeft=0;spacingRight=0;fontStyle=1;arcSize=12;absoluteArcSize=1;fontColor=#212121;" vertex="1" parent="1">
          <mxGeometry x="50" y="450" width="220" height="90" as="geometry" />
        </mxCell>
        <mxCell id="33XBjZ8d0-pwic80QHM7-10" value="&lt;font&gt;K8S&lt;/font&gt;" style="rounded=1;whiteSpace=wrap;html=1;fontFamily=VK Sans Display;strokeColor=none;arcsize=12;fillColor=#FFFFFF;spacing=0;spacingTop=12;spacingBottom=12;arcSize=12;absoluteArcSize=1;fontColor=#212121;" vertex="1" parent="1">
          <mxGeometry x="120" y="491" width="80" height="30" as="geometry" />
        </mxCell>
        <mxCell id="33XBjZ8d0-pwic80QHM7-11" value="Контроллеры&amp;nbsp; 7–9" style="rounded=1;whiteSpace=wrap;html=1;fontFamily=VK Sans Display;strokeColor=none;arcsize=12;fillColor=#F6F7F9;spacing=10;verticalAlign=top;spacingTop=0;spacingLeft=0;spacingRight=0;fontStyle=1;arcSize=12;absoluteArcSize=1;fontColor=#212121;" vertex="1" parent="1">
          <mxGeometry x="50" y="340" width="220" height="90" as="geometry" />
        </mxCell>
        <mxCell id="33XBjZ8d0-pwic80QHM7-12" value="etcd" style="rounded=1;whiteSpace=wrap;html=1;fontFamily=VK Sans Display;strokeColor=none;arcsize=12;fillColor=#FFFFFF;spacing=0;spacingTop=12;spacingBottom=12;arcSize=12;absoluteArcSize=1;fontColor=#212121;" vertex="1" parent="1">
          <mxGeometry x="70" y="382" width="80" height="30" as="geometry" />
        </mxCell>
        <mxCell id="33XBjZ8d0-pwic80QHM7-13" value="&lt;font&gt;DB&lt;/font&gt;" style="rounded=1;whiteSpace=wrap;html=1;fontFamily=VK Sans Display;strokeColor=none;arcsize=12;fillColor=#FFFFFF;spacing=0;spacingTop=12;spacingBottom=12;arcSize=12;absoluteArcSize=1;fontColor=#212121;" vertex="1" parent="1">
          <mxGeometry x="170" y="382" width="80" height="30" as="geometry" />
        </mxCell>
        <mxCell id="33XBjZ8d0-pwic80QHM7-14" value="Контроллеры&amp;nbsp; 1–3" style="rounded=1;whiteSpace=wrap;html=1;fontFamily=VK Sans Display;strokeColor=none;arcsize=12;fillColor=#F6F7F9;spacing=10;verticalAlign=top;spacingTop=0;spacingLeft=0;spacingRight=0;fontStyle=1;arcSize=12;absoluteArcSize=1;fontColor=#212121;" vertex="1" parent="1">
          <mxGeometry x="50" y="80" width="220" height="90" as="geometry" />
        </mxCell>
        <mxCell id="33XBjZ8d0-pwic80QHM7-15" value="HAProxy" style="rounded=1;whiteSpace=wrap;html=1;fontFamily=VK Sans Display;strokeColor=none;arcsize=12;fillColor=#FFFFFF;spacing=0;spacingTop=12;spacingBottom=12;arcSize=12;absoluteArcSize=1;fontColor=#212121;" vertex="1" parent="1">
          <mxGeometry x="120" y="121" width="80" height="30" as="geometry" />
        </mxCell>
        <mxCell id="33XBjZ8d0-pwic80QHM7-16" value="Контроллеры 13–15" style="rounded=1;whiteSpace=wrap;html=1;fontFamily=VK Sans Display;strokeColor=none;arcsize=12;fillColor=#F6F7F9;spacing=10;verticalAlign=top;spacingTop=0;spacingLeft=0;spacingRight=0;fontStyle=1;arcSize=12;absoluteArcSize=1;fontColor=#212121;" vertex="1" parent="1">
          <mxGeometry x="50" y="560" width="220" height="90" as="geometry" />
        </mxCell>
        <mxCell id="33XBjZ8d0-pwic80QHM7-17" value="&lt;font&gt;K8S&lt;/font&gt;" style="rounded=1;whiteSpace=wrap;html=1;fontFamily=VK Sans Display;strokeColor=none;arcsize=12;fillColor=#FFFFFF;spacing=0;spacingTop=12;spacingBottom=12;arcSize=12;absoluteArcSize=1;fontColor=#212121;" vertex="1" parent="1">
          <mxGeometry x="120" y="601" width="80" height="30" as="geometry" />
        </mxCell>
        <mxCell id="33XBjZ8d0-pwic80QHM7-18" value="Контроллеры&amp;nbsp; 4–6" style="rounded=1;whiteSpace=wrap;html=1;fontFamily=VK Sans Display;strokeColor=none;arcsize=12;fillColor=#F6F7F9;spacing=10;verticalAlign=top;spacingTop=0;spacingLeft=0;spacingRight=0;fontStyle=1;arcSize=12;absoluteArcSize=1;fontColor=#212121;" vertex="1" parent="1">
          <mxGeometry x="330" y="190" width="220" height="130" as="geometry" />
        </mxCell>
        <mxCell id="33XBjZ8d0-pwic80QHM7-19" value="&lt;font&gt;Other&lt;/font&gt;" style="rounded=1;whiteSpace=wrap;html=1;fontFamily=VK Sans Display;strokeColor=none;arcsize=12;fillColor=#FFFFFF;spacing=0;spacingTop=12;spacingBottom=12;arcSize=12;absoluteArcSize=1;fontColor=#212121;" vertex="1" parent="1">
          <mxGeometry x="350" y="232" width="80" height="30" as="geometry" />
        </mxCell>
        <mxCell id="33XBjZ8d0-pwic80QHM7-20" value="&lt;font&gt;Cinder&lt;/font&gt;" style="rounded=1;whiteSpace=wrap;html=1;fontFamily=VK Sans Display;strokeColor=none;arcsize=12;fillColor=#FFFFFF;spacing=0;spacingTop=12;spacingBottom=12;arcSize=12;absoluteArcSize=1;fontColor=#212121;" vertex="1" parent="1">
          <mxGeometry x="450" y="232" width="80" height="30" as="geometry" />
        </mxCell>
        <mxCell id="33XBjZ8d0-pwic80QHM7-21" value="&lt;font&gt;Neutron&lt;/font&gt;" style="rounded=1;whiteSpace=wrap;html=1;fontFamily=VK Sans Display;strokeColor=none;arcsize=12;fillColor=#FFFFFF;spacing=0;spacingTop=12;spacingBottom=12;arcSize=12;absoluteArcSize=1;fontColor=#212121;" vertex="1" parent="1">
          <mxGeometry x="350" y="272" width="80" height="30" as="geometry" />
        </mxCell>
        <mxCell id="33XBjZ8d0-pwic80QHM7-22" value="&lt;font&gt;Nova&lt;/font&gt;" style="rounded=1;whiteSpace=wrap;html=1;fontFamily=VK Sans Display;strokeColor=none;arcsize=12;fillColor=#FFFFFF;spacing=0;spacingTop=12;spacingBottom=12;arcSize=12;absoluteArcSize=1;fontColor=#212121;" vertex="1" parent="1">
          <mxGeometry x="450" y="272" width="80" height="30" as="geometry" />
        </mxCell>
        <mxCell id="33XBjZ8d0-pwic80QHM7-23" value="Контроллеры&amp;nbsp; 10–12" style="rounded=1;whiteSpace=wrap;html=1;fontFamily=VK Sans Display;strokeColor=none;arcsize=12;fillColor=#F6F7F9;spacing=10;verticalAlign=top;spacingTop=0;spacingLeft=0;spacingRight=0;fontStyle=1;arcSize=12;absoluteArcSize=1;fontColor=#212121;" vertex="1" parent="1">
          <mxGeometry x="330" y="450" width="220" height="90" as="geometry" />
        </mxCell>
        <mxCell id="33XBjZ8d0-pwic80QHM7-24" value="&lt;font&gt;DB&lt;/font&gt;" style="rounded=1;whiteSpace=wrap;html=1;fontFamily=VK Sans Display;strokeColor=none;arcsize=12;fillColor=#FFFFFF;spacing=0;spacingTop=12;spacingBottom=12;arcSize=12;absoluteArcSize=1;fontColor=#212121;" vertex="1" parent="1">
          <mxGeometry x="400" y="492" width="80" height="30" as="geometry" />
        </mxCell>
        <mxCell id="33XBjZ8d0-pwic80QHM7-25" value="Контроллеры&amp;nbsp; 7–9" style="rounded=1;whiteSpace=wrap;html=1;fontFamily=VK Sans Display;strokeColor=none;arcsize=12;fillColor=#F6F7F9;spacing=10;verticalAlign=top;spacingTop=0;spacingLeft=0;spacingRight=0;fontStyle=1;arcSize=12;absoluteArcSize=1;fontColor=#212121;" vertex="1" parent="1">
          <mxGeometry x="330" y="340" width="220" height="90" as="geometry" />
        </mxCell>
        <mxCell id="33XBjZ8d0-pwic80QHM7-26" value="etcd" style="rounded=1;whiteSpace=wrap;html=1;fontFamily=VK Sans Display;strokeColor=none;arcsize=12;fillColor=#FFFFFF;spacing=0;spacingTop=12;spacingBottom=12;arcSize=12;absoluteArcSize=1;fontColor=#212121;" vertex="1" parent="1">
          <mxGeometry x="350" y="382" width="80" height="30" as="geometry" />
        </mxCell>
        <mxCell id="33XBjZ8d0-pwic80QHM7-27" value="&lt;font&gt;DB&lt;/font&gt;" style="rounded=1;whiteSpace=wrap;html=1;fontFamily=VK Sans Display;strokeColor=none;arcsize=12;fillColor=#FFFFFF;spacing=0;spacingTop=12;spacingBottom=12;arcSize=12;absoluteArcSize=1;fontColor=#212121;" vertex="1" parent="1">
          <mxGeometry x="450" y="382" width="80" height="30" as="geometry" />
        </mxCell>
        <mxCell id="33XBjZ8d0-pwic80QHM7-28" value="Контроллеры&amp;nbsp; 1–3" style="rounded=1;whiteSpace=wrap;html=1;fontFamily=VK Sans Display;strokeColor=none;arcsize=12;fillColor=#F6F7F9;spacing=10;verticalAlign=top;spacingTop=0;spacingLeft=0;spacingRight=0;fontStyle=1;arcSize=12;absoluteArcSize=1;fontColor=#212121;" vertex="1" parent="1">
          <mxGeometry x="330" y="80" width="220" height="90" as="geometry" />
        </mxCell>
        <mxCell id="33XBjZ8d0-pwic80QHM7-29" value="HAProxy" style="rounded=1;whiteSpace=wrap;html=1;fontFamily=VK Sans Display;strokeColor=none;arcsize=12;fillColor=#FFFFFF;spacing=0;spacingTop=12;spacingBottom=12;arcSize=12;absoluteArcSize=1;fontColor=#212121;" vertex="1" parent="1">
          <mxGeometry x="400" y="121" width="80" height="30" as="geometry" />
        </mxCell>
        <mxCell id="33XBjZ8d0-pwic80QHM7-30" value="Контроллеры 22–24" style="rounded=1;whiteSpace=wrap;html=1;fontFamily=VK Sans Display;strokeColor=none;arcsize=12;fillColor=#F6F7F9;spacing=10;verticalAlign=top;spacingTop=0;spacingLeft=0;spacingRight=0;fontStyle=1;arcSize=12;absoluteArcSize=1;fontColor=#212121;" vertex="1" parent="1">
          <mxGeometry x="560" y="450" width="220" height="90" as="geometry" />
        </mxCell>
        <mxCell id="33XBjZ8d0-pwic80QHM7-31" value="&lt;font&gt;K8S&lt;/font&gt;" style="rounded=1;whiteSpace=wrap;html=1;fontFamily=VK Sans Display;strokeColor=none;arcsize=12;fillColor=#FFFFFF;spacing=0;spacingTop=12;spacingBottom=12;arcSize=12;absoluteArcSize=1;fontColor=#212121;" vertex="1" parent="1">
          <mxGeometry x="630" y="492" width="80" height="30" as="geometry" />
        </mxCell>
        <mxCell id="33XBjZ8d0-pwic80QHM7-32" value="Контроллеры 19–21" style="rounded=1;whiteSpace=wrap;html=1;fontFamily=VK Sans Display;strokeColor=none;arcsize=12;fillColor=#F6F7F9;spacing=10;verticalAlign=top;spacingTop=0;spacingLeft=0;spacingRight=0;fontStyle=1;arcSize=12;absoluteArcSize=1;fontColor=#212121;" vertex="1" parent="1">
          <mxGeometry x="560" y="340" width="220" height="90" as="geometry" />
        </mxCell>
        <mxCell id="33XBjZ8d0-pwic80QHM7-33" value="&lt;font&gt;K8S&lt;/font&gt;" style="rounded=1;whiteSpace=wrap;html=1;fontFamily=VK Sans Display;strokeColor=none;arcsize=12;fillColor=#FFFFFF;spacing=0;spacingTop=12;spacingBottom=12;arcSize=12;absoluteArcSize=1;fontColor=#212121;" vertex="1" parent="1">
          <mxGeometry x="630" y="382" width="80" height="30" as="geometry" />
        </mxCell>
        <mxCell id="33XBjZ8d0-pwic80QHM7-34" value="Контроллеры 16-18" style="rounded=1;whiteSpace=wrap;html=1;fontFamily=VK Sans Display;strokeColor=none;arcsize=12;fillColor=#F6F7F9;spacing=10;verticalAlign=top;spacingTop=0;spacingLeft=0;spacingRight=0;fontStyle=1;arcSize=12;absoluteArcSize=1;fontColor=#212121;" vertex="1" parent="1">
          <mxGeometry x="560" y="190" width="220" height="90" as="geometry" />
        </mxCell>
        <mxCell id="33XBjZ8d0-pwic80QHM7-35" value="&lt;font&gt;K8S&lt;/font&gt;" style="rounded=1;whiteSpace=wrap;html=1;fontFamily=VK Sans Display;strokeColor=none;arcsize=12;fillColor=#FFFFFF;spacing=0;spacingTop=12;spacingBottom=12;arcSize=12;absoluteArcSize=1;fontColor=#212121;" vertex="1" parent="1">
          <mxGeometry x="630" y="231" width="80" height="30" as="geometry" />
        </mxCell>
        <mxCell id="33XBjZ8d0-pwic80QHM7-36" value="Контроллеры 13–15" style="rounded=1;whiteSpace=wrap;html=1;fontFamily=VK Sans Display;strokeColor=none;arcsize=12;fillColor=#F6F7F9;spacing=10;verticalAlign=top;spacingTop=0;spacingLeft=0;spacingRight=0;fontStyle=1;arcSize=12;absoluteArcSize=1;fontColor=#212121;" vertex="1" parent="1">
          <mxGeometry x="560" y="80" width="220" height="90" as="geometry" />
        </mxCell>
        <mxCell id="33XBjZ8d0-pwic80QHM7-37" value="&lt;font&gt;K8S&lt;/font&gt;" style="rounded=1;whiteSpace=wrap;html=1;fontFamily=VK Sans Display;strokeColor=none;arcsize=12;fillColor=#FFFFFF;spacing=0;spacingTop=12;spacingBottom=12;arcSize=12;absoluteArcSize=1;fontColor=#212121;" vertex="1" parent="1">
          <mxGeometry x="630" y="121" width="80" height="30" as="geometry" />
        </mxCell>
      </root>
    </mxGraphModel>
  </diagram>
  <diagram id="tMrfs_BC4JLN4-X3ip0z" name="control_loop_server_3_6">
    <mxGraphModel dx="1434" dy="870" grid="1" gridSize="10" guides="1" tooltips="1" connect="1" arrows="1" fold="1" page="1" pageScale="1" pageWidth="827" pageHeight="1169" math="0" shadow="0">
      <root>
        <mxCell id="0" />
        <mxCell id="1" parent="0" />
        <mxCell id="AphTiQvm18P6vDCRtXkL-1" value="" style="rounded=1;whiteSpace=wrap;html=1;fontFamily=VK Sans Display;strokeColor=none;arcsize=12;fillColor=#FFFFFF;spacing=0;spacingTop=12;spacingBottom=12;arcSize=12;absoluteArcSize=1;fontSize=14;fontColor=#212121;" vertex="1" parent="1">
          <mxGeometry x="10" y="19" width="860" height="821" as="geometry" />
        </mxCell>
        <mxCell id="AphTiQvm18P6vDCRtXkL-2" value="Домен отказа 1" style="rounded=1;whiteSpace=wrap;html=1;strokeColor=none;strokeWidth=1;fontColor=#212121;fillColor=#F6F7F9;dashed=1;fontFamily=VK Sans Display;verticalAlign=top;spacing=10;fontStyle=1;arcSize=12;absoluteArcSize=1;" vertex="1" parent="1">
          <mxGeometry x="40" y="70" width="240" height="270" as="geometry" />
        </mxCell>
        <mxCell id="AphTiQvm18P6vDCRtXkL-3" value="&lt;font color=&quot;#212121&quot;&gt;Контроллер 1&lt;/font&gt;" style="rounded=1;whiteSpace=wrap;html=1;fontFamily=VK Sans Display;strokeColor=#E3E8F2;arcsize=12;fillColor=default;spacing=12;verticalAlign=top;spacingTop=0;strokeWidth=4;spacingLeft=0;spacingBottom=0;fontStyle=1;arcSize=12;absoluteArcSize=1;" vertex="1" parent="1">
          <mxGeometry x="55" y="110" width="210" height="210" as="geometry" />
        </mxCell>
        <mxCell id="AphTiQvm18P6vDCRtXkL-4" value="Домен отказа 1" style="rounded=1;whiteSpace=wrap;html=1;strokeColor=none;strokeWidth=1;fontColor=#212121;fillColor=#F6F7F9;dashed=1;fontFamily=VK Sans Display;verticalAlign=top;spacing=10;fontStyle=1;arcSize=12;absoluteArcSize=1;" vertex="1" parent="1">
          <mxGeometry x="40" y="423" width="240" height="390" as="geometry" />
        </mxCell>
        <mxCell id="AphTiQvm18P6vDCRtXkL-5" value="HAProxy" style="rounded=1;whiteSpace=wrap;html=1;fontFamily=VK Sans Display;strokeColor=none;arcsize=12;fillColor=#F6F7F9;spacing=0;spacingTop=12;spacingBottom=12;arcSize=12;absoluteArcSize=1;fontColor=#212121;" vertex="1" parent="1">
          <mxGeometry x="70" y="151" width="80" height="30" as="geometry" />
        </mxCell>
        <mxCell id="AphTiQvm18P6vDCRtXkL-6" value="&lt;font&gt;K8S&lt;/font&gt;" style="rounded=1;whiteSpace=wrap;html=1;fontFamily=VK Sans Display;strokeColor=none;arcsize=12;fillColor=#F6F7F9;spacing=0;spacingTop=12;spacingBottom=12;arcSize=12;absoluteArcSize=1;fontColor=#212121;" vertex="1" parent="1">
          <mxGeometry x="170" y="151" width="80" height="30" as="geometry" />
        </mxCell>
        <mxCell id="AphTiQvm18P6vDCRtXkL-7" value="etcd" style="rounded=1;whiteSpace=wrap;html=1;fontFamily=VK Sans Display;strokeColor=none;arcsize=12;fillColor=#F6F7F9;spacing=0;spacingTop=12;spacingBottom=12;arcSize=12;absoluteArcSize=1;fontColor=#212121;" vertex="1" parent="1">
          <mxGeometry x="70" y="191" width="80" height="30" as="geometry" />
        </mxCell>
        <mxCell id="AphTiQvm18P6vDCRtXkL-8" value="&lt;font&gt;DB&lt;/font&gt;" style="rounded=1;whiteSpace=wrap;html=1;fontFamily=VK Sans Display;strokeColor=none;arcsize=12;fillColor=#F6F7F9;spacing=0;spacingTop=12;spacingBottom=12;arcSize=12;absoluteArcSize=1;fontColor=#212121;" vertex="1" parent="1">
          <mxGeometry x="170" y="191" width="80" height="30" as="geometry" />
        </mxCell>
        <mxCell id="AphTiQvm18P6vDCRtXkL-9" value="&lt;font&gt;Other&lt;/font&gt;" style="rounded=1;whiteSpace=wrap;html=1;fontFamily=VK Sans Display;strokeColor=none;arcsize=12;fillColor=#F6F7F9;spacing=0;spacingTop=12;spacingBottom=12;arcSize=12;absoluteArcSize=1;fontColor=#212121;" vertex="1" parent="1">
          <mxGeometry x="70" y="231" width="80" height="30" as="geometry" />
        </mxCell>
        <mxCell id="AphTiQvm18P6vDCRtXkL-10" value="&lt;font&gt;Cinder&lt;/font&gt;" style="rounded=1;whiteSpace=wrap;html=1;fontFamily=VK Sans Display;strokeColor=none;arcsize=12;fillColor=#F6F7F9;spacing=0;spacingTop=12;spacingBottom=12;arcSize=12;absoluteArcSize=1;fontColor=#212121;" vertex="1" parent="1">
          <mxGeometry x="170" y="231" width="80" height="30" as="geometry" />
        </mxCell>
        <mxCell id="AphTiQvm18P6vDCRtXkL-11" value="&lt;font&gt;Neutron&lt;/font&gt;" style="rounded=1;whiteSpace=wrap;html=1;fontFamily=VK Sans Display;strokeColor=none;arcsize=12;fillColor=#F6F7F9;spacing=0;spacingTop=12;spacingBottom=12;arcSize=12;absoluteArcSize=1;fontColor=#212121;" vertex="1" parent="1">
          <mxGeometry x="70" y="271" width="80" height="30" as="geometry" />
        </mxCell>
        <mxCell id="AphTiQvm18P6vDCRtXkL-12" value="&lt;font&gt;Nova&lt;/font&gt;" style="rounded=1;whiteSpace=wrap;html=1;fontFamily=VK Sans Display;strokeColor=none;arcsize=12;fillColor=#F6F7F9;spacing=0;spacingTop=12;spacingBottom=12;arcSize=12;absoluteArcSize=1;fontColor=#212121;" vertex="1" parent="1">
          <mxGeometry x="170" y="271" width="80" height="30" as="geometry" />
        </mxCell>
        <mxCell id="AphTiQvm18P6vDCRtXkL-13" value="&lt;font&gt;Контроллер 1&lt;/font&gt;" style="rounded=1;whiteSpace=wrap;html=1;fontFamily=VK Sans Display;strokeColor=#E3E8F2;arcsize=12;fillColor=#FFFFFF;spacing=10;verticalAlign=top;spacingTop=0;spacingLeft=0;spacingRight=0;fontStyle=1;arcSize=12;absoluteArcSize=1;fontColor=#212121;strokeWidth=4;" vertex="1" parent="1">
          <mxGeometry x="55" y="463" width="210" height="210" as="geometry" />
        </mxCell>
        <mxCell id="AphTiQvm18P6vDCRtXkL-14" value="HAProxy" style="rounded=1;whiteSpace=wrap;html=1;fontFamily=VK Sans Display;strokeColor=none;arcsize=12;fillColor=#F6F7F9;spacing=0;spacingTop=12;spacingBottom=12;arcSize=12;absoluteArcSize=1;fontColor=#212121;" vertex="1" parent="1">
          <mxGeometry x="120" y="504" width="80" height="30" as="geometry" />
        </mxCell>
        <mxCell id="AphTiQvm18P6vDCRtXkL-15" value="etcd" style="rounded=1;whiteSpace=wrap;html=1;fontFamily=VK Sans Display;strokeColor=none;arcsize=12;fillColor=#F6F7F9;spacing=0;spacingTop=12;spacingBottom=12;arcSize=12;absoluteArcSize=1;fontColor=#212121;" vertex="1" parent="1">
          <mxGeometry x="70" y="544" width="80" height="30" as="geometry" />
        </mxCell>
        <mxCell id="AphTiQvm18P6vDCRtXkL-16" value="&lt;font&gt;DB&lt;/font&gt;" style="rounded=1;whiteSpace=wrap;html=1;fontFamily=VK Sans Display;strokeColor=none;arcsize=12;fillColor=#F6F7F9;spacing=0;spacingTop=12;spacingBottom=12;arcSize=12;absoluteArcSize=1;fontColor=#212121;" vertex="1" parent="1">
          <mxGeometry x="170" y="544" width="80" height="30" as="geometry" />
        </mxCell>
        <mxCell id="AphTiQvm18P6vDCRtXkL-17" value="&lt;font&gt;Other&lt;/font&gt;" style="rounded=1;whiteSpace=wrap;html=1;fontFamily=VK Sans Display;strokeColor=none;arcsize=12;fillColor=#F6F7F9;spacing=0;spacingTop=12;spacingBottom=12;arcSize=12;absoluteArcSize=1;fontColor=#212121;" vertex="1" parent="1">
          <mxGeometry x="70" y="584" width="80" height="30" as="geometry" />
        </mxCell>
        <mxCell id="AphTiQvm18P6vDCRtXkL-18" value="&lt;font&gt;Cinder&lt;/font&gt;" style="rounded=1;whiteSpace=wrap;html=1;fontFamily=VK Sans Display;strokeColor=none;arcsize=12;fillColor=#F6F7F9;spacing=0;spacingTop=12;spacingBottom=12;arcSize=12;absoluteArcSize=1;fontColor=#212121;" vertex="1" parent="1">
          <mxGeometry x="170" y="584" width="80" height="30" as="geometry" />
        </mxCell>
        <mxCell id="AphTiQvm18P6vDCRtXkL-19" value="&lt;font&gt;Neutron&lt;/font&gt;" style="rounded=1;whiteSpace=wrap;html=1;fontFamily=VK Sans Display;strokeColor=none;arcsize=12;fillColor=#F6F7F9;spacing=0;spacingTop=12;spacingBottom=12;arcSize=12;absoluteArcSize=1;fontColor=#212121;" vertex="1" parent="1">
          <mxGeometry x="70" y="624" width="80" height="30" as="geometry" />
        </mxCell>
        <mxCell id="AphTiQvm18P6vDCRtXkL-20" value="&lt;font&gt;Nova&lt;/font&gt;" style="rounded=1;whiteSpace=wrap;html=1;fontFamily=VK Sans Display;strokeColor=none;arcsize=12;fillColor=#F6F7F9;spacing=0;spacingTop=12;spacingBottom=12;arcSize=12;absoluteArcSize=1;fontColor=#212121;" vertex="1" parent="1">
          <mxGeometry x="170" y="624" width="80" height="30" as="geometry" />
        </mxCell>
        <mxCell id="AphTiQvm18P6vDCRtXkL-21" value="&lt;font&gt;Контроллер 4&lt;/font&gt;" style="rounded=1;whiteSpace=wrap;html=1;fontFamily=VK Sans Display;strokeColor=#E3E8F2;arcsize=12;fillColor=#FFFFFF;spacing=10;verticalAlign=top;spacingTop=0;spacingLeft=0;spacingRight=0;fontStyle=1;arcSize=12;absoluteArcSize=1;fontColor=#212121;strokeWidth=4;" vertex="1" parent="1">
          <mxGeometry x="55" y="703" width="210" height="90" as="geometry" />
        </mxCell>
        <mxCell id="AphTiQvm18P6vDCRtXkL-22" value="&lt;font&gt;K8S&lt;/font&gt;" style="rounded=1;whiteSpace=wrap;html=1;fontFamily=VK Sans Display;strokeColor=none;arcsize=12;fillColor=#F6F7F9;spacing=0;spacingTop=12;spacingBottom=12;arcSize=12;absoluteArcSize=1;fontColor=#212121;" vertex="1" parent="1">
          <mxGeometry x="120" y="743" width="80" height="30" as="geometry" />
        </mxCell>
        <mxCell id="AphTiQvm18P6vDCRtXkL-23" value="Домен отказа 2" style="rounded=1;whiteSpace=wrap;html=1;strokeColor=none;strokeWidth=1;fontColor=#212121;fillColor=#F6F7F9;dashed=1;fontFamily=VK Sans Display;verticalAlign=top;spacing=10;fontStyle=1;arcSize=12;absoluteArcSize=1;" vertex="1" parent="1">
          <mxGeometry x="320" y="423" width="240" height="390" as="geometry" />
        </mxCell>
        <mxCell id="AphTiQvm18P6vDCRtXkL-24" value="&lt;font&gt;Контроллер 2&lt;/font&gt;" style="rounded=1;whiteSpace=wrap;html=1;fontFamily=VK Sans Display;strokeColor=#E3E8F2;arcsize=12;fillColor=#FFFFFF;spacing=10;verticalAlign=top;spacingTop=0;spacingLeft=0;spacingRight=0;fontStyle=1;arcSize=12;absoluteArcSize=1;fontColor=#212121;strokeWidth=4;" vertex="1" parent="1">
          <mxGeometry x="335" y="463" width="210" height="210" as="geometry" />
        </mxCell>
        <mxCell id="AphTiQvm18P6vDCRtXkL-25" value="HAProxy" style="rounded=1;whiteSpace=wrap;html=1;fontFamily=VK Sans Display;strokeColor=none;arcsize=12;fillColor=#F6F7F9;spacing=0;spacingTop=12;spacingBottom=12;arcSize=12;absoluteArcSize=1;fontColor=#212121;" vertex="1" parent="1">
          <mxGeometry x="400" y="504" width="80" height="30" as="geometry" />
        </mxCell>
        <mxCell id="AphTiQvm18P6vDCRtXkL-26" value="etcd" style="rounded=1;whiteSpace=wrap;html=1;fontFamily=VK Sans Display;strokeColor=none;arcsize=12;fillColor=#F6F7F9;spacing=0;spacingTop=12;spacingBottom=12;arcSize=12;absoluteArcSize=1;fontColor=#212121;" vertex="1" parent="1">
          <mxGeometry x="350" y="544" width="80" height="30" as="geometry" />
        </mxCell>
        <mxCell id="AphTiQvm18P6vDCRtXkL-27" value="&lt;font&gt;DB&lt;/font&gt;" style="rounded=1;whiteSpace=wrap;html=1;fontFamily=VK Sans Display;strokeColor=none;arcsize=12;fillColor=#F6F7F9;spacing=0;spacingTop=12;spacingBottom=12;arcSize=12;absoluteArcSize=1;fontColor=#212121;" vertex="1" parent="1">
          <mxGeometry x="450" y="544" width="80" height="30" as="geometry" />
        </mxCell>
        <mxCell id="AphTiQvm18P6vDCRtXkL-28" value="&lt;font&gt;Other&lt;/font&gt;" style="rounded=1;whiteSpace=wrap;html=1;fontFamily=VK Sans Display;strokeColor=none;arcsize=12;fillColor=#F6F7F9;spacing=0;spacingTop=12;spacingBottom=12;arcSize=12;absoluteArcSize=1;fontColor=#212121;" vertex="1" parent="1">
          <mxGeometry x="350" y="584" width="80" height="30" as="geometry" />
        </mxCell>
        <mxCell id="AphTiQvm18P6vDCRtXkL-29" value="&lt;font&gt;Cinder&lt;/font&gt;" style="rounded=1;whiteSpace=wrap;html=1;fontFamily=VK Sans Display;strokeColor=none;arcsize=12;fillColor=#F6F7F9;spacing=0;spacingTop=12;spacingBottom=12;arcSize=12;absoluteArcSize=1;fontColor=#212121;" vertex="1" parent="1">
          <mxGeometry x="450" y="584" width="80" height="30" as="geometry" />
        </mxCell>
        <mxCell id="AphTiQvm18P6vDCRtXkL-30" value="&lt;font&gt;Neutron&lt;/font&gt;" style="rounded=1;whiteSpace=wrap;html=1;fontFamily=VK Sans Display;strokeColor=none;arcsize=12;fillColor=#F6F7F9;spacing=0;spacingTop=12;spacingBottom=12;arcSize=12;absoluteArcSize=1;fontColor=#212121;" vertex="1" parent="1">
          <mxGeometry x="350" y="624" width="80" height="30" as="geometry" />
        </mxCell>
        <mxCell id="AphTiQvm18P6vDCRtXkL-31" value="&lt;font&gt;Nova&lt;/font&gt;" style="rounded=1;whiteSpace=wrap;html=1;fontFamily=VK Sans Display;strokeColor=none;arcsize=12;fillColor=#F6F7F9;spacing=0;spacingTop=12;spacingBottom=12;arcSize=12;absoluteArcSize=1;fontColor=#212121;" vertex="1" parent="1">
          <mxGeometry x="450" y="624" width="80" height="30" as="geometry" />
        </mxCell>
        <mxCell id="AphTiQvm18P6vDCRtXkL-32" value="&lt;font&gt;Контроллер 5&lt;/font&gt;" style="rounded=1;whiteSpace=wrap;html=1;fontFamily=VK Sans Display;strokeColor=#E3E8F2;arcsize=12;fillColor=#FFFFFF;spacing=10;verticalAlign=top;spacingTop=0;spacingLeft=0;spacingRight=0;fontStyle=1;arcSize=12;absoluteArcSize=1;fontColor=#212121;strokeWidth=4;" vertex="1" parent="1">
          <mxGeometry x="335" y="703" width="210" height="90" as="geometry" />
        </mxCell>
        <mxCell id="AphTiQvm18P6vDCRtXkL-33" value="&lt;font&gt;K8S&lt;/font&gt;" style="rounded=1;whiteSpace=wrap;html=1;fontFamily=VK Sans Display;strokeColor=none;arcsize=12;fillColor=#F6F7F9;spacing=0;spacingTop=12;spacingBottom=12;arcSize=12;absoluteArcSize=1;fontColor=#212121;" vertex="1" parent="1">
          <mxGeometry x="400" y="743" width="80" height="30" as="geometry" />
        </mxCell>
        <mxCell id="AphTiQvm18P6vDCRtXkL-34" value="Домен отказа 3" style="rounded=1;whiteSpace=wrap;html=1;strokeColor=none;strokeWidth=1;fontColor=#212121;fillColor=#F6F7F9;dashed=1;fontFamily=VK Sans Display;verticalAlign=top;spacing=10;fontStyle=1;arcSize=12;absoluteArcSize=1;" vertex="1" parent="1">
          <mxGeometry x="600" y="423" width="240" height="390" as="geometry" />
        </mxCell>
        <mxCell id="AphTiQvm18P6vDCRtXkL-35" value="&lt;font&gt;Контроллер 3&lt;/font&gt;" style="rounded=1;whiteSpace=wrap;html=1;fontFamily=VK Sans Display;strokeColor=#E3E8F2;arcsize=12;fillColor=#FFFFFF;spacing=10;verticalAlign=top;spacingTop=0;spacingLeft=0;spacingRight=0;fontStyle=1;arcSize=12;absoluteArcSize=1;fontColor=#212121;strokeWidth=4;" vertex="1" parent="1">
          <mxGeometry x="615" y="463" width="210" height="210" as="geometry" />
        </mxCell>
        <mxCell id="AphTiQvm18P6vDCRtXkL-36" value="HAProxy" style="rounded=1;whiteSpace=wrap;html=1;fontFamily=VK Sans Display;strokeColor=none;arcsize=12;fillColor=#F6F7F9;spacing=0;spacingTop=12;spacingBottom=12;arcSize=12;absoluteArcSize=1;fontColor=#212121;" vertex="1" parent="1">
          <mxGeometry x="680" y="504" width="80" height="30" as="geometry" />
        </mxCell>
        <mxCell id="AphTiQvm18P6vDCRtXkL-37" value="etcd" style="rounded=1;whiteSpace=wrap;html=1;fontFamily=VK Sans Display;strokeColor=none;arcsize=12;fillColor=#F6F7F9;spacing=0;spacingTop=12;spacingBottom=12;arcSize=12;absoluteArcSize=1;fontColor=#212121;" vertex="1" parent="1">
          <mxGeometry x="630" y="544" width="80" height="30" as="geometry" />
        </mxCell>
        <mxCell id="AphTiQvm18P6vDCRtXkL-38" value="&lt;font&gt;DB&lt;/font&gt;" style="rounded=1;whiteSpace=wrap;html=1;fontFamily=VK Sans Display;strokeColor=none;arcsize=12;fillColor=#F6F7F9;spacing=0;spacingTop=12;spacingBottom=12;arcSize=12;absoluteArcSize=1;fontColor=#212121;" vertex="1" parent="1">
          <mxGeometry x="730" y="544" width="80" height="30" as="geometry" />
        </mxCell>
        <mxCell id="AphTiQvm18P6vDCRtXkL-39" value="&lt;font&gt;Other&lt;/font&gt;" style="rounded=1;whiteSpace=wrap;html=1;fontFamily=VK Sans Display;strokeColor=none;arcsize=12;fillColor=#F6F7F9;spacing=0;spacingTop=12;spacingBottom=12;arcSize=12;absoluteArcSize=1;fontColor=#212121;" vertex="1" parent="1">
          <mxGeometry x="630" y="584" width="80" height="30" as="geometry" />
        </mxCell>
        <mxCell id="AphTiQvm18P6vDCRtXkL-40" value="&lt;font&gt;Cinder&lt;/font&gt;" style="rounded=1;whiteSpace=wrap;html=1;fontFamily=VK Sans Display;strokeColor=none;arcsize=12;fillColor=#F6F7F9;spacing=0;spacingTop=12;spacingBottom=12;arcSize=12;absoluteArcSize=1;fontColor=#212121;" vertex="1" parent="1">
          <mxGeometry x="730" y="584" width="80" height="30" as="geometry" />
        </mxCell>
        <mxCell id="AphTiQvm18P6vDCRtXkL-41" value="&lt;font&gt;Neutron&lt;/font&gt;" style="rounded=1;whiteSpace=wrap;html=1;fontFamily=VK Sans Display;strokeColor=none;arcsize=12;fillColor=#F6F7F9;spacing=0;spacingTop=12;spacingBottom=12;arcSize=12;absoluteArcSize=1;fontColor=#212121;" vertex="1" parent="1">
          <mxGeometry x="630" y="624" width="80" height="30" as="geometry" />
        </mxCell>
        <mxCell id="AphTiQvm18P6vDCRtXkL-42" value="&lt;font&gt;Nova&lt;/font&gt;" style="rounded=1;whiteSpace=wrap;html=1;fontFamily=VK Sans Display;strokeColor=none;arcsize=12;fillColor=#F6F7F9;spacing=0;spacingTop=12;spacingBottom=12;arcSize=12;absoluteArcSize=1;fontColor=#212121;" vertex="1" parent="1">
          <mxGeometry x="730" y="624" width="80" height="30" as="geometry" />
        </mxCell>
        <mxCell id="AphTiQvm18P6vDCRtXkL-43" value="&lt;font&gt;Контроллер 6&lt;/font&gt;" style="rounded=1;whiteSpace=wrap;html=1;fontFamily=VK Sans Display;strokeColor=#E3E8F2;arcsize=12;fillColor=#FFFFFF;spacing=10;verticalAlign=top;spacingTop=0;spacingLeft=0;spacingRight=0;fontStyle=1;arcSize=12;absoluteArcSize=1;fontColor=#212121;strokeWidth=4;" vertex="1" parent="1">
          <mxGeometry x="615" y="703" width="210" height="90" as="geometry" />
        </mxCell>
        <mxCell id="AphTiQvm18P6vDCRtXkL-44" value="&lt;font&gt;K8S&lt;/font&gt;" style="rounded=1;whiteSpace=wrap;html=1;fontFamily=VK Sans Display;strokeColor=none;arcsize=12;fillColor=#F6F7F9;spacing=0;spacingTop=12;spacingBottom=12;arcSize=12;absoluteArcSize=1;fontColor=#212121;" vertex="1" parent="1">
          <mxGeometry x="680" y="743" width="80" height="30" as="geometry" />
        </mxCell>
        <mxCell id="AphTiQvm18P6vDCRtXkL-45" value="Домен отказа 2" style="rounded=1;whiteSpace=wrap;html=1;strokeColor=none;strokeWidth=1;fontColor=#212121;fillColor=#F6F7F9;dashed=1;fontFamily=VK Sans Display;verticalAlign=top;spacing=10;fontStyle=1;arcSize=12;absoluteArcSize=1;" vertex="1" parent="1">
          <mxGeometry x="320" y="71" width="240" height="270" as="geometry" />
        </mxCell>
        <mxCell id="AphTiQvm18P6vDCRtXkL-46" value="&lt;font color=&quot;#212121&quot;&gt;Контроллер 2&lt;/font&gt;" style="rounded=1;whiteSpace=wrap;html=1;fontFamily=VK Sans Display;strokeColor=#E3E8F2;arcsize=12;fillColor=default;spacing=12;verticalAlign=top;spacingTop=0;strokeWidth=4;spacingLeft=0;spacingBottom=0;fontStyle=1;arcSize=12;absoluteArcSize=1;" vertex="1" parent="1">
          <mxGeometry x="335" y="111" width="210" height="210" as="geometry" />
        </mxCell>
        <mxCell id="AphTiQvm18P6vDCRtXkL-47" value="HAProxy" style="rounded=1;whiteSpace=wrap;html=1;fontFamily=VK Sans Display;strokeColor=none;arcsize=12;fillColor=#F6F7F9;spacing=0;spacingTop=12;spacingBottom=12;arcSize=12;absoluteArcSize=1;fontColor=#212121;" vertex="1" parent="1">
          <mxGeometry x="350" y="152" width="80" height="30" as="geometry" />
        </mxCell>
        <mxCell id="AphTiQvm18P6vDCRtXkL-48" value="&lt;font&gt;K8S&lt;/font&gt;" style="rounded=1;whiteSpace=wrap;html=1;fontFamily=VK Sans Display;strokeColor=none;arcsize=12;fillColor=#F6F7F9;spacing=0;spacingTop=12;spacingBottom=12;arcSize=12;absoluteArcSize=1;fontColor=#212121;" vertex="1" parent="1">
          <mxGeometry x="450" y="152" width="80" height="30" as="geometry" />
        </mxCell>
        <mxCell id="AphTiQvm18P6vDCRtXkL-49" value="etcd" style="rounded=1;whiteSpace=wrap;html=1;fontFamily=VK Sans Display;strokeColor=none;arcsize=12;fillColor=#F6F7F9;spacing=0;spacingTop=12;spacingBottom=12;arcSize=12;absoluteArcSize=1;fontColor=#212121;" vertex="1" parent="1">
          <mxGeometry x="350" y="192" width="80" height="30" as="geometry" />
        </mxCell>
        <mxCell id="AphTiQvm18P6vDCRtXkL-50" value="&lt;font&gt;DB&lt;/font&gt;" style="rounded=1;whiteSpace=wrap;html=1;fontFamily=VK Sans Display;strokeColor=none;arcsize=12;fillColor=#F6F7F9;spacing=0;spacingTop=12;spacingBottom=12;arcSize=12;absoluteArcSize=1;fontColor=#212121;" vertex="1" parent="1">
          <mxGeometry x="450" y="192" width="80" height="30" as="geometry" />
        </mxCell>
        <mxCell id="AphTiQvm18P6vDCRtXkL-51" value="&lt;font&gt;Other&lt;/font&gt;" style="rounded=1;whiteSpace=wrap;html=1;fontFamily=VK Sans Display;strokeColor=none;arcsize=12;fillColor=#F6F7F9;spacing=0;spacingTop=12;spacingBottom=12;arcSize=12;absoluteArcSize=1;fontColor=#212121;" vertex="1" parent="1">
          <mxGeometry x="350" y="232" width="80" height="30" as="geometry" />
        </mxCell>
        <mxCell id="AphTiQvm18P6vDCRtXkL-52" value="&lt;font&gt;Cinder&lt;/font&gt;" style="rounded=1;whiteSpace=wrap;html=1;fontFamily=VK Sans Display;strokeColor=none;arcsize=12;fillColor=#F6F7F9;spacing=0;spacingTop=12;spacingBottom=12;arcSize=12;absoluteArcSize=1;fontColor=#212121;" vertex="1" parent="1">
          <mxGeometry x="450" y="232" width="80" height="30" as="geometry" />
        </mxCell>
        <mxCell id="AphTiQvm18P6vDCRtXkL-53" value="&lt;font&gt;Neutron&lt;/font&gt;" style="rounded=1;whiteSpace=wrap;html=1;fontFamily=VK Sans Display;strokeColor=none;arcsize=12;fillColor=#F6F7F9;spacing=0;spacingTop=12;spacingBottom=12;arcSize=12;absoluteArcSize=1;fontColor=#212121;" vertex="1" parent="1">
          <mxGeometry x="350" y="272" width="80" height="30" as="geometry" />
        </mxCell>
        <mxCell id="AphTiQvm18P6vDCRtXkL-54" value="&lt;font&gt;Nova&lt;/font&gt;" style="rounded=1;whiteSpace=wrap;html=1;fontFamily=VK Sans Display;strokeColor=none;arcsize=12;fillColor=#F6F7F9;spacing=0;spacingTop=12;spacingBottom=12;arcSize=12;absoluteArcSize=1;fontColor=#212121;" vertex="1" parent="1">
          <mxGeometry x="450" y="272" width="80" height="30" as="geometry" />
        </mxCell>
        <mxCell id="AphTiQvm18P6vDCRtXkL-55" value="Домен отказа 3" style="rounded=1;whiteSpace=wrap;html=1;strokeColor=none;strokeWidth=1;fontColor=#212121;fillColor=#F6F7F9;dashed=1;fontFamily=VK Sans Display;verticalAlign=top;spacing=10;fontStyle=1;arcSize=12;absoluteArcSize=1;" vertex="1" parent="1">
          <mxGeometry x="600" y="70" width="240" height="270" as="geometry" />
        </mxCell>
        <mxCell id="AphTiQvm18P6vDCRtXkL-56" value="&lt;font color=&quot;#212121&quot;&gt;Контроллер 3&lt;/font&gt;" style="rounded=1;whiteSpace=wrap;html=1;fontFamily=VK Sans Display;strokeColor=#E3E8F2;arcsize=12;fillColor=default;spacing=12;verticalAlign=top;spacingTop=0;strokeWidth=4;spacingLeft=0;spacingBottom=0;fontStyle=1;arcSize=12;absoluteArcSize=1;" vertex="1" parent="1">
          <mxGeometry x="615" y="110" width="210" height="210" as="geometry" />
        </mxCell>
        <mxCell id="AphTiQvm18P6vDCRtXkL-57" value="HAProxy" style="rounded=1;whiteSpace=wrap;html=1;fontFamily=VK Sans Display;strokeColor=none;arcsize=12;fillColor=#F6F7F9;spacing=0;spacingTop=12;spacingBottom=12;arcSize=12;absoluteArcSize=1;fontColor=#212121;" vertex="1" parent="1">
          <mxGeometry x="630" y="151" width="80" height="30" as="geometry" />
        </mxCell>
        <mxCell id="AphTiQvm18P6vDCRtXkL-58" value="&lt;font&gt;K8S&lt;/font&gt;" style="rounded=1;whiteSpace=wrap;html=1;fontFamily=VK Sans Display;strokeColor=none;arcsize=12;fillColor=#F6F7F9;spacing=0;spacingTop=12;spacingBottom=12;arcSize=12;absoluteArcSize=1;fontColor=#212121;" vertex="1" parent="1">
          <mxGeometry x="730" y="151" width="80" height="30" as="geometry" />
        </mxCell>
        <mxCell id="AphTiQvm18P6vDCRtXkL-59" value="etcd" style="rounded=1;whiteSpace=wrap;html=1;fontFamily=VK Sans Display;strokeColor=none;arcsize=12;fillColor=#F6F7F9;spacing=0;spacingTop=12;spacingBottom=12;arcSize=12;absoluteArcSize=1;fontColor=#212121;" vertex="1" parent="1">
          <mxGeometry x="630" y="191" width="80" height="30" as="geometry" />
        </mxCell>
        <mxCell id="AphTiQvm18P6vDCRtXkL-60" value="&lt;font&gt;DB&lt;/font&gt;" style="rounded=1;whiteSpace=wrap;html=1;fontFamily=VK Sans Display;strokeColor=none;arcsize=12;fillColor=#F6F7F9;spacing=0;spacingTop=12;spacingBottom=12;arcSize=12;absoluteArcSize=1;fontColor=#212121;" vertex="1" parent="1">
          <mxGeometry x="730" y="191" width="80" height="30" as="geometry" />
        </mxCell>
        <mxCell id="AphTiQvm18P6vDCRtXkL-61" value="&lt;font&gt;Other&lt;/font&gt;" style="rounded=1;whiteSpace=wrap;html=1;fontFamily=VK Sans Display;strokeColor=none;arcsize=12;fillColor=#F6F7F9;spacing=0;spacingTop=12;spacingBottom=12;arcSize=12;absoluteArcSize=1;fontColor=#212121;" vertex="1" parent="1">
          <mxGeometry x="630" y="231" width="80" height="30" as="geometry" />
        </mxCell>
        <mxCell id="AphTiQvm18P6vDCRtXkL-62" value="&lt;font&gt;Cinder&lt;/font&gt;" style="rounded=1;whiteSpace=wrap;html=1;fontFamily=VK Sans Display;strokeColor=none;arcsize=12;fillColor=#F6F7F9;spacing=0;spacingTop=12;spacingBottom=12;arcSize=12;absoluteArcSize=1;fontColor=#212121;" vertex="1" parent="1">
          <mxGeometry x="730" y="231" width="80" height="30" as="geometry" />
        </mxCell>
        <mxCell id="AphTiQvm18P6vDCRtXkL-63" value="&lt;font&gt;Neutron&lt;/font&gt;" style="rounded=1;whiteSpace=wrap;html=1;fontFamily=VK Sans Display;strokeColor=none;arcsize=12;fillColor=#F6F7F9;spacing=0;spacingTop=12;spacingBottom=12;arcSize=12;absoluteArcSize=1;fontColor=#212121;" vertex="1" parent="1">
          <mxGeometry x="630" y="271" width="80" height="30" as="geometry" />
        </mxCell>
        <mxCell id="AphTiQvm18P6vDCRtXkL-64" value="&lt;font&gt;Nova&lt;/font&gt;" style="rounded=1;whiteSpace=wrap;html=1;fontFamily=VK Sans Display;strokeColor=none;arcsize=12;fillColor=#F6F7F9;spacing=0;spacingTop=12;spacingBottom=12;arcSize=12;absoluteArcSize=1;fontColor=#212121;" vertex="1" parent="1">
          <mxGeometry x="730" y="271" width="80" height="30" as="geometry" />
        </mxCell>
        <mxCell id="AphTiQvm18P6vDCRtXkL-65" value="Для 3 контроллеров" style="rounded=1;whiteSpace=wrap;html=1;strokeColor=#7C8A9A;strokeWidth=1;fontColor=#212121;fillColor=none;dashed=1;fontFamily=VK Sans Display;verticalAlign=top;spacing=10;fontStyle=1;arcSize=12;absoluteArcSize=1;" vertex="1" parent="1">
          <mxGeometry x="26" y="30" width="827.5" height="330" as="geometry" />
        </mxCell>
        <mxCell id="AphTiQvm18P6vDCRtXkL-66" value="Для 6 контроллеров" style="rounded=1;whiteSpace=wrap;html=1;strokeColor=#7C8A9A;strokeWidth=1;fontColor=#212121;fillColor=none;dashed=1;fontFamily=VK Sans Display;verticalAlign=top;spacing=10;fontStyle=1;arcSize=12;absoluteArcSize=1;" vertex="1" parent="1">
          <mxGeometry x="27" y="380" width="827.5" height="450" as="geometry" />
        </mxCell>
      </root>
    </mxGraphModel>
  </diagram>
</mxfile>
